<?xml version="1.0" encoding="UTF-8" standalone="no"?>
<!-- Created with Inkscape (http://www.inkscape.org/) -->

<svg
   xmlns:dc="http://purl.org/dc/elements/1.1/"
   xmlns:cc="http://creativecommons.org/ns#"
   xmlns:rdf="http://www.w3.org/1999/02/22-rdf-syntax-ns#"
   xmlns:svg="http://www.w3.org/2000/svg"
   xmlns="http://www.w3.org/2000/svg"
   xmlns:sodipodi="http://sodipodi.sourceforge.net/DTD/sodipodi-0.dtd"
   xmlns:inkscape="http://www.inkscape.org/namespaces/inkscape"
   width="996.71875"
   height="511.71875"
   id="svg2"
   version="1.1"
   inkscape:version="0.48.4 r9939"
   sodipodi:docname="New document 1">
  <defs
     id="defs4" />
  <sodipodi:namedview
     id="base"
     pagecolor="#ffffff"
     bordercolor="#666666"
     borderopacity="1.0"
     inkscape:pageopacity="0.0"
     inkscape:pageshadow="2"
     inkscape:zoom="0.7"
     inkscape:cx="969.5919"
     inkscape:cy="-95.635826"
     inkscape:document-units="px"
     inkscape:current-layer="layer1"
     showgrid="true"
     showguides="false"
     fit-margin-top="200"
     fit-margin-left="200"
     fit-margin-bottom="200"
     fit-margin-right="200"
     inkscape:window-width="1920"
     inkscape:window-height="1024"
     inkscape:window-x="0"
     inkscape:window-y="27"
     inkscape:window-maximized="1">
    <inkscape:grid
       type="xygrid"
       id="grid3757"
       empspacing="5"
       visible="true"
       enabled="true"
       snapvisiblegridlinesonly="true"
       originx="158.21875px"
       originy="-708.51843px" />
  </sodipodi:namedview>
  <metadata
     id="metadata7">
    <rdf:RDF>
      <cc:Work
         rdf:about="">
        <dc:format>image/svg+xml</dc:format>
        <dc:type
           rdf:resource="http://purl.org/dc/dcmitype/StillImage" />
        <dc:title></dc:title>
      </cc:Work>
    </rdf:RDF>
  </metadata>
  <g
     inkscape:label="Layer 1"
     inkscape:groupmode="layer"
     id="layer1"
     transform="translate(158.21875,167.875)">
    <path
       style="fill:#e44343;fill-opacity:1;stroke:#000000;stroke-width:1.54222608px;stroke-linecap:butt;stroke-linejoin:miter;stroke-opacity:1"
       d="m 234.55029,222.6216 36.44004,0 c 7.58905,3.76592 13.92494,11.2353 27.33003,0 l 36.44005,0 c 7.81081,6.21861 17.07186,7.80903 27.33002,0 l 36.44001,0 c 6.5699,3.569 13.597,9.84552 27.33,0 l 36.4401,0 c 8.8549,3.75048 16.1238,9.72699 27.33,0 l 36.4401,0 c 8.113,5.85437 16.7692,7.29877 27.33,0 l 36.4401,0 c 8.8673,3.29308 16.8011,8.61198 27.33,0 l 36.44,0 c 9.11,6.52705 18.4369,7.8181 27.33,0 l 36.4401,0 c 9.11,6.52705 18.22,6.52705 27.33,0 l 36.4401,0 0,58.74348 -35.2526,0 c -8.6158,-9.26853 -17.9965,-7.84944 -27.8375,0 l -36.3499,0 c -13.0446,-11.08676 -19.8299,-5.13201 -26.9173,0 l -37.7303,0 c -9.0491,-9.9098 -18.0982,-7.13623 -27.1473,0 l -37.0401,0 c -7.7818,-8.53082 -16.682,-9.04822 -26.9173,0 l -35.4296,0 c -11.7023,-8.90368 -20.4743,-5.91052 -28.5278,0 l -35.1996,0 c -9.9426,-8.3179 -19.1202,-7.04437 -27.8375,0 l -37.04009,0 c -8.89577,-7.85796 -17.79151,-8.83325 -26.68726,0 l -36.57992,0 c -8.96185,-6.37983 -18.03787,-9.73275 -27.60751,0 l -36.49907,0 0,-58.74348"
       id="path2985"
       inkscape:connector-curvature="0"
       sodipodi:nodetypes="ccccccccccccccccccccccccccccccccccccc" />
  </g>
</svg>
