<?xml version="1.0" encoding="UTF-8" standalone="no"?>
<!-- Generator: Adobe Illustrator 15.0.0, SVG Export Plug-In . SVG Version: 6.00 Build 0)  -->

<svg
   xmlns:dc="http://purl.org/dc/elements/1.1/"
   xmlns:cc="http://creativecommons.org/ns#"
   xmlns:rdf="http://www.w3.org/1999/02/22-rdf-syntax-ns#"
   xmlns:svg="http://www.w3.org/2000/svg"
   xmlns="http://www.w3.org/2000/svg"
   xmlns:xlink="http://www.w3.org/1999/xlink"
   xmlns:sodipodi="http://sodipodi.sourceforge.net/DTD/sodipodi-0.dtd"
   xmlns:inkscape="http://www.inkscape.org/namespaces/inkscape"
   version="1.1"
   id="Layer_1"
   x="0px"
   y="0px"
   width="556px"
   height="850.39px"
   viewBox="0 0 556 850.39"
   enable-background="new 0 0 556 850.39"
   xml:space="preserve"
   inkscape:version="0.48.5 r10040"
   sodipodi:docname="pro_training_celsius_kelvin_scale.svg"><metadata
     id="metadata266"><rdf:RDF><cc:Work
         rdf:about=""><dc:format>image/svg+xml</dc:format><dc:type
           rdf:resource="http://purl.org/dc/dcmitype/StillImage" /></cc:Work></rdf:RDF></metadata><defs
     id="defs264" /><sodipodi:namedview
     pagecolor="#ffffff"
     bordercolor="#666666"
     borderopacity="1"
     objecttolerance="10"
     gridtolerance="10"
     guidetolerance="10"
     inkscape:pageopacity="0"
     inkscape:pageshadow="2"
     inkscape:window-width="1600"
     inkscape:window-height="876"
     id="namedview262"
     showgrid="false"
     inkscape:zoom="1.1100789"
     inkscape:cx="141.07097"
     inkscape:cy="508.97283"
     inkscape:window-x="1600"
     inkscape:window-y="24"
     inkscape:window-maximized="1"
     inkscape:current-layer="Layer_2" /><g
     id="Layer_2"><path
       style="fill:none;stroke:#ff002b;stroke-width:9.30000019000000044;stroke-linecap:butt;stroke-linejoin:miter;stroke-miterlimit:4;stroke-opacity:0.64835167;stroke-dasharray:none"
       d="m 143.95926,585.12221 279.63767,0 1.27398,0.63699"
       id="path3243"
       inkscape:connector-curvature="0" /><g
       id="g4"><path
         fill="#A0C0DE"
         stroke="#000000"
         stroke-miterlimit="10"
         d="M163.75,61c0,0,14-1.75,14,9.5S172.5,83,172.5,83    s3.5,2.75,3.5,13.5V657c0,0,10.75,19.25,10.75,45s-21.5,29.25-21.5,29.25"
         id="path6" /><path
         fill="#A0C0DE"
         stroke="#000000"
         stroke-miterlimit="10"
         d="M167.528,61c0,0-14-1.75-14,9.5s5.25,12.5,5.25,12.5    s-3.5,2.75-3.5,13.5V657c0,0-10.75,19.25-10.75,45s21.5,29.25,21.5,29.25"
         id="path8" /></g><g
       id="g10"><path
         fill="#F28936"
         stroke="#000000"
         stroke-miterlimit="10"
         d="M165.25,726.5c3,0,14.25-2.574,14.25-24.75    s-9.5-45.084-9.5-45.084L169,357h-7.125"
         id="path12" /><path
         fill="#F28936"
         stroke="#000000"
         stroke-miterlimit="10"
         d="M165.625,726.5c-3,0-14.25-2.574-14.25-24.75    s9.5-45.084,9.5-45.084l1-299.666H169"
         id="path14" /></g><g
       id="g16"><path
         fill="#A0C0DE"
         stroke="#000000"
         stroke-miterlimit="10"
         d="M396.75,61c0,0,14-1.75,14,9.5S405.5,83,405.5,83    s3.5,2.75,3.5,13.5V657c0,0,10.75,19.25,10.75,45s-21.5,29.25-21.5,29.25"
         id="path18" /><path
         fill="#A0C0DE"
         stroke="#000000"
         stroke-miterlimit="10"
         d="M400.528,61c0,0-14-1.75-14,9.5s5.25,12.5,5.25,12.5    s-3.5,2.75-3.5,13.5V657c0,0-10.75,19.25-10.75,45s21.5,29.25,21.5,29.25"
         id="path20" /></g><g
       id="g22"><path
         fill="#F28936"
         stroke="#000000"
         stroke-miterlimit="10"
         d="M398.25,726.5c3,0,14.25-2.574,14.25-24.75    s-9.5-45.084-9.5-45.084L402,357h-7.125"
         id="path24" /><path
         fill="#F28936"
         stroke="#000000"
         stroke-miterlimit="10"
         d="M398.625,726.5c-3,0-14.25-2.574-14.25-24.75    s9.5-45.084,9.5-45.084l1-299.666H402"
         id="path26" /></g><line
       fill="none"
       stroke="#000000"
       stroke-miterlimit="10"
       x1="179.5"
       y1="143.667"
       x2="244.667"
       y2="143.667"
       id="line28" /><line
       fill="none"
       stroke="#000000"
       stroke-miterlimit="10"
       x1="318.834"
       y1="143.667"
       x2="384.001"
       y2="143.667"
       id="line30" /><line
       fill="none"
       stroke="#000000"
       stroke-miterlimit="10"
       x1="318.834"
       y1="262.667"
       x2="384.001"
       y2="262.667"
       id="line32" /><line
       fill="none"
       stroke="#000000"
       stroke-miterlimit="10"
       x1="179.167"
       y1="262.667"
       x2="244.334"
       y2="262.667"
       id="line34" /><line
       fill="none"
       stroke="#000000"
       stroke-miterlimit="10"
       x1="179.167"
       y1="357"
       x2="220.333"
       y2="357"
       id="line36" /><line
       fill="none"
       stroke="#000000"
       stroke-miterlimit="10"
       x1="342.028"
       y1="357"
       x2="383.195"
       y2="357"
       id="line38" /><line
       fill="none"
       stroke="#000000"
       stroke-miterlimit="10"
       x1="335.665"
       y1="594.333"
       x2="383.195"
       y2="594.333"
       id="line40" /><line
       fill="none"
       stroke="#000000"
       stroke-miterlimit="10"
       x1="178.667"
       y1="594.333"
       x2="226.195"
       y2="594.333"
       id="line42" /><text
       font-size="20"
       id="text44"
       style="font-size:20px;font-family:MyriadPro-Regular"
       x="271.31653"
       y="141.7634">מים </text>
<text
       transform="translate(256.6658,160.6675)"
       font-size="20"
       id="text46"
       style="font-size:20px;font-family:MyriadPro-Regular"> רותחים</text>
<text
       font-size="20"
       id="text48"
       style="font-size:20px;font-family:MyriadPro-Regular"
       x="273.77542"
       y="261.15543">מים</text>
<text
       transform="translate(254.6658,281.3335)"
       font-size="20"
       id="text50"
       style="font-size:20px;font-family:MyriadPro-Regular">קופאים</text>
<text
       font-size="20"
       id="text58"
       style="font-size:20px;font-family:MyriadPro-Regular"
       transform="translate(255.8206,490.3354)">חנקן</text>
<text
       font-size="20"
       id="text60"
       style="font-size:20px;font-family:MyriadPro-Regular"
       x="256.2829"
       y="514.33539">נוזלי</text>
<text
       font-size="20"
       id="text62"
       style="font-size:20px;font-family:MyriadPro-Regular"
       x="246.217"
       y="587.63849">האפס</text>
<text
       font-size="20"
       id="text64"
       style="font-size:20px;font-family:MyriadPro-Regular"
       x="236.95204"
       y="614.18646">המוחלט</text>
<line
       fill="none"
       stroke="#000000"
       stroke-miterlimit="10"
       x1="151.75"
       y1="143.667"
       x2="141.25"
       y2="143.667"
       id="line66" /><line
       fill="none"
       stroke="#000000"
       stroke-miterlimit="10"
       x1="151.75"
       y1="206.5"
       x2="141.25"
       y2="206.5"
       id="line68" /><line
       fill="none"
       stroke="#000000"
       stroke-miterlimit="10"
       x1="151.75"
       y1="262.667"
       x2="141.25"
       y2="262.667"
       id="line70" /><line
       fill="none"
       stroke="#000000"
       stroke-miterlimit="10"
       x1="151.75"
       y1="313.75"
       x2="141.25"
       y2="313.75"
       id="line72" /><line
       fill="none"
       stroke="#000000"
       stroke-miterlimit="10"
       x1="151.75"
       y1="325"
       x2="141.25"
       y2="325"
       id="line74" /><line
       fill="none"
       stroke="#000000"
       stroke-miterlimit="10"
       x1="151.75"
       y1="357"
       x2="141.25"
       y2="357"
       id="line76" /><line
       fill="none"
       stroke="#000000"
       stroke-miterlimit="10"
       x1="151.75"
       y1="385.75"
       x2="141.25"
       y2="385.75"
       id="line78" /><line
       fill="none"
       stroke="#000000"
       stroke-miterlimit="10"
       x1="151.75"
       y1="439"
       x2="141.25"
       y2="439"
       id="line80" /><line
       fill="none"
       stroke="#000000"
       stroke-miterlimit="10"
       x1="151.75"
       y1="478.25"
       x2="141.25"
       y2="478.25"
       id="line82" /><line
       fill="none"
       stroke="#000000"
       stroke-miterlimit="10"
       x1="151.75"
       y1="496"
       x2="141.25"
       y2="496"
       id="line84" /><line
       fill="none"
       stroke="#000000"
       stroke-miterlimit="10"
       x1="151.75"
       y1="559.75"
       x2="141.25"
       y2="559.75"
       id="line86" /><line
       fill="none"
       stroke="#000000"
       stroke-miterlimit="10"
       x1="151.75"
       y1="594.333"
       x2="141.25"
       y2="594.333"
       id="line88" /><line
       fill="none"
       stroke="#000000"
       stroke-miterlimit="10"
       x1="423"
       y1="594.333"
       x2="412.5"
       y2="594.333"
       id="line90" /><line
       fill="none"
       stroke="#000000"
       stroke-miterlimit="10"
       x1="423"
       y1="534.501"
       x2="412.5"
       y2="534.501"
       id="line92" /><line
       fill="none"
       stroke="#000000"
       stroke-miterlimit="10"
       x1="423"
       y1="495.333"
       x2="412.5"
       y2="495.333"
       id="line94" /><line
       fill="none"
       stroke="#000000"
       stroke-miterlimit="10"
       x1="423"
       y1="476.833"
       x2="412.5"
       y2="476.833"
       id="line96" /><line
       fill="none"
       stroke="#000000"
       stroke-miterlimit="10"
       x1="423"
       y1="416"
       x2="412.5"
       y2="416"
       id="line98" /><line
       fill="none"
       stroke="#000000"
       stroke-miterlimit="10"
       x1="423"
       y1="363.834"
       x2="412.5"
       y2="363.834"
       id="line100" /><line
       fill="none"
       stroke="#000000"
       stroke-miterlimit="10"
       x1="423"
       y1="357"
       x2="412.5"
       y2="357"
       id="line102" /><line
       fill="none"
       stroke="#000000"
       stroke-miterlimit="10"
       x1="423"
       y1="297.167"
       x2="412.5"
       y2="297.167"
       id="line104" /><line
       fill="none"
       stroke="#000000"
       stroke-miterlimit="10"
       x1="423"
       y1="262.667"
       x2="412.5"
       y2="262.667"
       id="line106" /><line
       fill="none"
       stroke="#000000"
       stroke-miterlimit="10"
       x1="423"
       y1="231"
       x2="412.5"
       y2="231"
       id="line108" /><line
       fill="none"
       stroke="#000000"
       stroke-miterlimit="10"
       x1="423"
       y1="174.167"
       x2="412.5"
       y2="174.167"
       id="line110" /><line
       fill="none"
       stroke="#000000"
       stroke-miterlimit="10"
       x1="423"
       y1="143.667"
       x2="412.5"
       y2="143.667"
       id="line112" /><line
       fill="none"
       stroke="#000000"
       stroke-miterlimit="10"
       x1="423"
       y1="112.667"
       x2="412.5"
       y2="112.667"
       id="line114" /><line
       fill="none"
       stroke="#000000"
       stroke-miterlimit="10"
       x1="190"
       y1="313.75"
       x2="179.5"
       y2="313.75"
       id="line116" /><text
       transform="matrix(1 0 0 1 428.0706 119.6675)"
       font-family="'MyriadPro-Regular'"
       font-size="20"
       id="text118">400 K</text>
<text
       transform="matrix(1 0 0 1 428.0706 149.6694)"
       font-family="'MyriadPro-Regular'"
       font-size="20"
       id="text120">373 K</text>
<text
       transform="matrix(1 0 0 1 428.0706 180.0015)"
       font-family="'MyriadPro-Regular'"
       font-size="20"
       id="text122">350 K</text>
<text
       transform="matrix(1 0 0 1 428.0706 237.6694)"
       font-family="'MyriadPro-Regular'"
       font-size="20"
       id="text124">300 K</text>
<text
       transform="matrix(1 0 0 1 428.0706 270.3354)"
       font-family="'MyriadPro-Regular'"
       font-size="20"
       id="text126">273 K</text>
<text
       transform="matrix(1 0 0 1 428.0706 304.3354)"
       font-family="'MyriadPro-Regular'"
       font-size="20"
       id="text128">250 K</text>
<text
       transform="matrix(1 0 0 1 428.0706 358.6694)"
       font-family="'MyriadPro-Regular'"
       font-size="20"
       id="text130">200 K</text>
<text
       font-size="20"
       id="text132"
       x="76.370399"
       y="362.6694"
       style="font-size:20px;font-family:MyriadPro-Regular">-78˚C</text>
<text
       font-size="20"
       id="text134"
       x="66.240997"
       y="391.4194"
       style="font-size:20px;font-family:MyriadPro-Regular">-100˚C</text>
<text
       font-size="20"
       id="text136"
       x="66.240997"
       y="444.9194"
       style="font-size:20px;font-family:MyriadPro-Regular">-150˚C</text>
<text
       font-size="20"
       id="text138"
       x="66.240997"
       y="484.6694"
       style="font-size:20px;font-family:MyriadPro-Regular">-191˚C</text>
<text
       font-size="20"
       id="text140"
       x="66.240997"
       y="502.1694"
       style="font-size:20px;font-family:MyriadPro-Regular">-200˚C</text>
<text
       font-size="20"
       id="text142"
       x="66.240997"
       y="565.16937"
       style="font-size:20px;font-family:MyriadPro-Regular">-250˚C</text>
<text
       font-size="20"
       id="text144"
       x="66.240997"
       y="600.66937"
       style="font-size:20px;font-family:MyriadPro-Regular">-273˚C</text>
<text
       font-size="20"
       id="text146"
       x="76.370399"
       y="331.16751"
       style="font-size:20px;font-family:MyriadPro-Regular">-50˚C</text>
<text
       font-size="20"
       id="text148"
       x="76.370399"
       y="310.66751"
       style="font-size:20px;font-family:MyriadPro-Regular">-40˚C</text>
<text
       font-size="20"
       id="text150"
       x="84.570099"
       y="267.16751"
       style="font-size:20px;font-family:MyriadPro-Regular">0˚C</text>
<text
       font-size="20"
       id="text152"
       x="79.440201"
       y="211.1675"
       style="font-size:20px;font-family:MyriadPro-Regular">50˚C</text>
<text
       font-size="20"
       id="text154"
       x="74.309799"
       y="150.1675"
       style="font-size:20px;font-family:MyriadPro-Regular">100˚C</text>
<text
       transform="matrix(1 0 0 1 428.0706 377.6685)"
       font-family="'MyriadPro-Regular'"
       font-size="20"
       id="text156">195 K</text>
<text
       transform="matrix(1 0 0 1 428.0706 422.6685)"
       font-family="'MyriadPro-Regular'"
       font-size="20"
       id="text158">150 K</text>
<text
       transform="matrix(1 0 0 1 428.0706 483.3354)"
       font-family="'MyriadPro-Regular'"
       font-size="20"
       id="text160">100 K</text>
<text
       transform="matrix(1 0 0 1 433.1995 503.3354)"
       font-family="'MyriadPro-Regular'"
       font-size="20"
       id="text162">82 K</text>
<text
       transform="matrix(1 0 0 1 433.1995 540.0015)"
       font-family="'MyriadPro-Regular'"
       font-size="20"
       id="text164">50 K</text>
<text
       transform="matrix(1 0 0 1 436.2092 600.3335)"
       font-family="'MyriadPro-Regular'"
       font-size="20"
       id="text166">0  K</text>
<text
       transform="translate(136.5881,758.0015)"
       font-size="20"
       id="text168"
       style="font-size:20px;font-family:MyriadPro-Regular">מעלות צלסיוס</text>
<text
       transform="translate(113.5081,782.0015)"
       font-size="20"
       id="text170"
       style="font-size:20px;font-family:MyriadPro-Regular" />
<text
       transform="translate(373.2893,758.0015)"
       font-size="20"
       id="text172"
       style="font-size:20px;font-family:MyriadPro-Regular">קלווין</text>
<text
       transform="translate(355.6477,782.0015)"
       font-size="20"
       id="text174"
       style="font-size:20px;font-family:MyriadPro-Regular">(מוחלט)</text>
<text
       font-size="20"
       id="text60-7"
       style="font-size:20px;font-family:MyriadPro-Regular"
       x="288.41345"
       y="369.42645">קרח</text>
<text
       font-size="20"
       id="text60-7-3"
       style="font-size:20px;font-family:MyriadPro-Regular"
       x="251.47913"
       y="370.3273">יבש</text>
</g><g
     id="g176"><path
       fill="#F15C2F"
       d="M24.242,835.244c-2.972-5.029-6.899-10.076-7.473-10.854v14.121l13.115,7.518   C29.885,846.029,27.504,840.763,24.242,835.244L24.242,835.244z"
       id="path178" /><g
       id="g180"><g
         id="g182"><defs
           id="defs184"><rect
             id="SVGID_1_"
             x="2"
             y="824.39"
             width="130.89"
             height="24" /></defs><clipPath
           id="SVGID_2_"><use
             xlink:href="#SVGID_1_"
             overflow="visible"
             id="use188" /></clipPath><path
           clip-path="url(#SVGID_2_)"
           fill="#F15C2F"
           d="M15.07,824.455c-0.725,0.984-4.528,5.885-7.427,10.789     C4.381,840.763,2,846.029,2,846.029l13.068-7.49L15.07,824.455L15.07,824.455z"
           id="path190" /></g><g
         id="g192"><defs
           id="defs194"><rect
             id="SVGID_3_"
             x="2"
             y="824.39"
             width="130.89"
             height="24" /></defs><clipPath
           id="SVGID_4_"><use
             xlink:href="#SVGID_3_"
             overflow="visible"
             id="use198" /></clipPath><path
           clip-path="url(#SVGID_4_)"
           fill="#F15C2F"
           d="M15.98,840.144l-13.517,7.459c0,0,7.044,0.818,13.454,0.785     c6.299-0.029,13.626-0.732,13.626-0.732L15.98,840.144L15.98,840.144z"
           id="path200" /></g></g><path
       fill="#414042"
       d="M44.213,845.558c0-0.361-0.008-0.656-0.03-0.945h0.572l0.03,0.563h0.021   c0.201-0.332,0.536-0.641,1.13-0.641c0.491,0,0.862,0.287,1.02,0.699h0.015c0.111-0.195,0.253-0.348,0.402-0.455   c0.215-0.158,0.453-0.244,0.795-0.244c0.476,0,1.182,0.303,1.182,1.514v2.059h-0.64v-1.979c0-0.67-0.253-1.074-0.781-1.074   c-0.372,0-0.662,0.268-0.773,0.576c-0.029,0.088-0.052,0.203-0.052,0.318v2.158h-0.64v-2.094c0-0.557-0.253-0.961-0.751-0.961   c-0.409,0-0.706,0.318-0.811,0.635c-0.036,0.096-0.052,0.203-0.052,0.313v2.105h-0.639L44.213,845.558L44.213,845.558z"
       id="path202" /><path
       fill="#414042"
       d="M52.822,846.021c0.009-0.404-0.171-1.033-0.906-1.033c-0.661,0-0.952,0.592-1.003,1.033H52.822   L52.822,846.021z M50.904,846.474c0.016,0.859,0.58,1.215,1.234,1.215c0.468,0,0.75-0.08,0.997-0.182l0.111,0.453   c-0.23,0.102-0.625,0.217-1.197,0.217c-1.107,0-1.771-0.707-1.771-1.76c0-1.055,0.64-1.885,1.688-1.885   c1.174,0,1.487,1.004,1.487,1.646c0,0.129-0.016,0.23-0.022,0.295H50.904L50.904,846.474z"
       id="path204" /><path
       fill="#414042"
       d="M56.287,846.324c-0.713-0.016-1.524,0.107-1.524,0.787c0,0.412,0.282,0.605,0.617,0.605   c0.468,0,0.766-0.289,0.87-0.586c0.021-0.063,0.037-0.137,0.037-0.201V846.324L56.287,846.324z M56.384,848.107l-0.053-0.441H56.31   c-0.201,0.275-0.588,0.521-1.101,0.521c-0.729,0-1.102-0.498-1.102-1.004c0-0.846,0.773-1.307,2.164-1.299v-0.072   c0-0.289-0.082-0.809-0.817-0.809c-0.334,0-0.685,0.1-0.938,0.26l-0.147-0.42c0.297-0.188,0.729-0.309,1.182-0.309   c1.101,0,1.368,0.729,1.368,1.428v1.307c0,0.305,0.015,0.6,0.06,0.838H56.384L56.384,848.107z"
       id="path206" /><path
       fill="#414042"
       d="M58.012,847.457c0.194,0.123,0.536,0.254,0.863,0.254c0.476,0,0.699-0.232,0.699-0.52   c0-0.305-0.187-0.471-0.67-0.645c-0.646-0.225-0.951-0.57-0.951-0.988c0-0.563,0.469-1.023,1.241-1.023   c0.365,0,0.686,0.1,0.886,0.215l-0.164,0.463c-0.143-0.088-0.402-0.203-0.736-0.203c-0.386,0-0.602,0.217-0.602,0.479   c0,0.289,0.216,0.418,0.684,0.592c0.625,0.23,0.944,0.533,0.944,1.053c0,0.615-0.491,1.047-1.347,1.047   c-0.394,0-0.758-0.094-1.011-0.236L58.012,847.457L58.012,847.457z"
       id="path208" /><path
       fill="#414042"
       d="M64.183,847.154c0,0.359,0.007,0.678,0.03,0.953h-0.58l-0.037-0.57h-0.015   c-0.172,0.281-0.551,0.65-1.19,0.65c-0.564,0-1.242-0.305-1.242-1.531v-2.043h0.655v1.936c0,0.664,0.208,1.111,0.803,1.111   c0.438,0,0.744-0.297,0.863-0.578c0.037-0.094,0.059-0.209,0.059-0.324v-2.145h0.654V847.154L64.183,847.154z"
       id="path210" /><path
       fill="#414042"
       d="M65.395,845.703c0-0.41-0.008-0.766-0.03-1.09h0.573l0.022,0.686h0.029   c0.164-0.469,0.559-0.764,0.997-0.764c0.074,0,0.126,0.006,0.187,0.02v0.6c-0.067-0.016-0.134-0.021-0.223-0.021   c-0.462,0-0.788,0.34-0.878,0.816c-0.015,0.086-0.028,0.188-0.028,0.295v1.863h-0.647v-2.404H65.395z"
       id="path212" /><path
       fill="#414042"
       d="M70.161,846.021c0.007-0.404-0.171-1.033-0.907-1.033c-0.662,0-0.952,0.592-1.004,1.033H70.161   L70.161,846.021z M68.243,846.474c0.015,0.859,0.579,1.215,1.233,1.215c0.468,0,0.751-0.08,0.997-0.182l0.111,0.453   c-0.23,0.102-0.624,0.217-1.197,0.217c-1.107,0-1.769-0.707-1.769-1.76c0-1.055,0.639-1.885,1.688-1.885   c1.175,0,1.487,1.004,1.487,1.646c0,0.129-0.015,0.23-0.022,0.295H68.243L68.243,846.474z"
       id="path214" /><path
       fill="#414042"
       d="M71.73,845.558c0-0.361-0.008-0.656-0.029-0.945h0.571l0.03,0.563h0.022c0.2-0.332,0.535-0.641,1.13-0.641   c0.49,0,0.861,0.287,1.019,0.699h0.014c0.112-0.195,0.253-0.348,0.402-0.455c0.216-0.158,0.454-0.244,0.795-0.244   c0.477,0,1.183,0.303,1.183,1.514v2.059h-0.64v-1.979c0-0.67-0.253-1.074-0.781-1.074c-0.371,0-0.661,0.268-0.772,0.576   c-0.03,0.088-0.052,0.203-0.052,0.318v2.158h-0.641v-2.094c0-0.557-0.252-0.961-0.751-0.961c-0.409,0-0.706,0.318-0.81,0.635   c-0.037,0.096-0.053,0.203-0.053,0.313v2.105H71.73V845.558L71.73,845.558z"
       id="path216" /><path
       fill="#414042"
       d="M80.339,846.021c0.007-0.404-0.171-1.033-0.907-1.033c-0.662,0-0.952,0.592-1.004,1.033H80.339   L80.339,846.021z M78.421,846.474c0.015,0.859,0.581,1.215,1.234,1.215c0.469,0,0.752-0.08,0.996-0.182l0.111,0.453   c-0.229,0.102-0.624,0.217-1.197,0.217c-1.106,0-1.769-0.707-1.769-1.76c0-1.055,0.639-1.885,1.688-1.885   c1.176,0,1.487,1.004,1.487,1.646c0,0.129-0.015,0.23-0.021,0.295H78.421L78.421,846.474z"
       id="path218" /><path
       fill="#414042"
       d="M81.908,845.558c0-0.361-0.009-0.656-0.03-0.945h0.58l0.037,0.578h0.015   c0.179-0.332,0.595-0.656,1.189-0.656c0.497,0,1.271,0.287,1.271,1.486v2.086h-0.654v-2.016c0-0.563-0.216-1.031-0.833-1.031   c-0.431,0-0.766,0.297-0.877,0.648c-0.029,0.08-0.044,0.189-0.044,0.297v2.102h-0.653V845.558L81.908,845.558z"
       id="path220" /><path
       fill="#414042"
       d="M86.92,843.609v1.004h0.937v0.482H86.92v1.885c0,0.434,0.126,0.68,0.491,0.68   c0.171,0,0.297-0.021,0.379-0.043l0.029,0.475c-0.126,0.051-0.327,0.088-0.58,0.088c-0.305,0-0.55-0.094-0.705-0.268   c-0.187-0.188-0.254-0.498-0.254-0.91v-1.904h-0.558v-0.482h0.558v-0.838L86.92,843.609L86.92,843.609z"
       id="path222" /><path
       fill="#414042"
       d="M90.422,848.107v-3.494h0.654v3.494H90.422L90.422,848.107z M91.15,843.63   c0.009,0.217-0.154,0.391-0.416,0.391c-0.23,0-0.395-0.174-0.395-0.391c0-0.225,0.171-0.396,0.409-0.396   C90.994,843.234,91.15,843.408,91.15,843.63L91.15,843.63z"
       id="path224" /><path
       fill="#414042"
       d="M92.288,845.558c0-0.361-0.008-0.656-0.03-0.945h0.58l0.037,0.578h0.015   c0.179-0.332,0.595-0.656,1.19-0.656c0.498,0,1.271,0.287,1.271,1.486v2.086h-0.654v-2.016c0-0.563-0.215-1.031-0.833-1.031   c-0.431,0-0.766,0.297-0.877,0.648c-0.029,0.08-0.045,0.189-0.045,0.297v2.102h-0.653V845.558L92.288,845.558z"
       id="path226" /><path
       fill="#414042"
       d="M96.541,845.558c0-0.361-0.007-0.656-0.03-0.945h0.58l0.038,0.578h0.015   c0.179-0.332,0.595-0.656,1.189-0.656c0.498,0,1.271,0.287,1.271,1.486v2.086H98.95v-2.016c0-0.563-0.217-1.031-0.833-1.031   c-0.432,0-0.767,0.297-0.877,0.648c-0.03,0.08-0.045,0.189-0.045,0.297v2.102h-0.653L96.541,845.558L96.541,845.558z"
       id="path228" /><path
       fill="#414042"
       d="M101.195,846.367c0,0.766,0.454,1.344,1.094,1.344c0.625,0,1.093-0.57,1.093-1.357   c0-0.592-0.305-1.344-1.079-1.344C101.53,845.009,101.195,845.703,101.195,846.367L101.195,846.367z M104.051,846.332   c0,1.291-0.922,1.854-1.792,1.854c-0.974,0-1.725-0.691-1.725-1.797c0-1.17,0.787-1.854,1.783-1.854   C103.351,844.535,104.051,845.261,104.051,846.332L104.051,846.332z"
       id="path230" /><path
       fill="#414042"
       d="M105.202,844.613l0.707,1.963c0.118,0.318,0.215,0.605,0.29,0.896h0.021   c0.083-0.289,0.187-0.578,0.305-0.896l0.699-1.963h0.685l-1.413,3.494h-0.625l-1.368-3.494H105.202L105.202,844.613z"
       id="path232" /><path
       fill="#414042"
       d="M110.518,846.324c-0.713-0.016-1.523,0.107-1.523,0.787c0,0.412,0.282,0.605,0.616,0.605   c0.47,0,0.768-0.289,0.871-0.586c0.022-0.063,0.037-0.137,0.037-0.201L110.518,846.324L110.518,846.324z M110.615,848.107   l-0.053-0.441h-0.021c-0.201,0.275-0.587,0.521-1.102,0.521c-0.728,0-1.101-0.498-1.101-1.004c0-0.846,0.772-1.307,2.164-1.299   v-0.072c0-0.289-0.082-0.809-0.818-0.809c-0.334,0-0.684,0.1-0.937,0.26l-0.148-0.42c0.297-0.188,0.729-0.309,1.182-0.309   c1.101,0,1.368,0.729,1.368,1.428v1.307c0,0.305,0.016,0.6,0.061,0.838H110.615L110.615,848.107z"
       id="path234" /><path
       fill="#414042"
       d="M113.092,843.609v1.004h0.937v0.482h-0.937v1.885c0,0.434,0.126,0.68,0.49,0.68   c0.171,0,0.297-0.021,0.379-0.043l0.03,0.475c-0.127,0.051-0.328,0.088-0.58,0.088c-0.306,0-0.551-0.094-0.706-0.268   c-0.187-0.188-0.253-0.498-0.253-0.91v-1.904h-0.559v-0.482h0.559v-0.838L113.092,843.609L113.092,843.609z"
       id="path236" /><path
       fill="#414042"
       d="M114.89,848.107v-3.494h0.655v3.494H114.89L114.89,848.107z M115.619,843.63   c0.008,0.217-0.156,0.391-0.417,0.391c-0.23,0-0.395-0.174-0.395-0.391c0-0.225,0.171-0.396,0.409-0.396   C115.463,843.234,115.619,843.408,115.619,843.63L115.619,843.63z"
       id="path238" /><path
       fill="#414042"
       d="M117.158,846.367c0,0.766,0.452,1.344,1.093,1.344c0.625,0,1.093-0.57,1.093-1.357   c0-0.592-0.305-1.344-1.078-1.344C117.493,845.009,117.158,845.703,117.158,846.367L117.158,846.367z M120.013,846.332   c0,1.291-0.922,1.854-1.792,1.854c-0.974,0-1.725-0.691-1.725-1.797c0-1.17,0.789-1.854,1.784-1.854   C119.314,844.535,120.013,845.261,120.013,846.332L120.013,846.332z"
       id="path240" /><path
       fill="#414042"
       d="M120.965,845.558c0-0.361-0.008-0.656-0.03-0.945h0.58l0.038,0.578h0.014   c0.18-0.332,0.597-0.656,1.19-0.656c0.498,0,1.271,0.287,1.271,1.486v2.086h-0.653v-2.016c0-0.563-0.216-1.031-0.833-1.031   c-0.432,0-0.767,0.297-0.877,0.648c-0.03,0.08-0.044,0.189-0.044,0.297v2.102h-0.654L120.965,845.558L120.965,845.558z"
       id="path242" /><path
       fill="#414042"
       d="M46.257,837.673c0.33,0.059,0.836,0.059,1.322,0.059c3.11,0.02,4.958-1.691,4.958-5.018   c0.02-2.896-1.653-4.549-4.647-4.549c-0.758,0-1.303,0.059-1.633,0.137V837.673L46.257,837.673z M43.865,826.572   c1.05-0.176,2.392-0.271,3.811-0.271c2.45,0,4.142,0.504,5.348,1.518c1.265,1.029,2.042,2.586,2.042,4.82   c0,2.334-0.797,4.084-2.042,5.211c-1.303,1.188-3.383,1.789-5.931,1.789c-1.4,0-2.45-0.076-3.228-0.176V826.572L43.865,826.572z"
       id="path244" /><polygon
       fill="#414042"
       points="64.474,833.689 59.536,833.689 59.536,837.539 65.057,837.539 65.057,839.501 57.144,839.501    57.144,826.396 64.766,826.396 64.766,828.361 59.536,828.361 59.536,831.744 64.474,831.744  "
       id="polygon246" /><path
       fill="#414042"
       d="M69.431,839.501l-3.208-13.105h2.547l1.244,5.949c0.331,1.596,0.642,3.268,0.855,4.57h0.039   c0.214-1.381,0.584-2.938,0.953-4.59l1.419-5.932h2.509l1.303,6.027c0.33,1.557,0.602,3.016,0.796,4.436h0.039   c0.233-1.439,0.545-2.938,0.895-4.531l1.361-5.932h2.431l-3.52,13.105h-2.567l-1.36-6.164c-0.33-1.496-0.563-2.74-0.72-4.16h-0.038   c-0.234,1.4-0.486,2.664-0.875,4.16l-1.518,6.164h-2.585V839.501z"
       id="path248" /><polygon
       fill="#414042"
       points="91.537,833.689 86.598,833.689 86.598,837.539 92.12,837.539 92.12,839.501 84.207,839.501    84.207,826.396 91.828,826.396 91.828,828.361 86.598,828.361 86.598,831.744 91.537,831.744  "
       id="polygon250" /><path
       fill="#414042"
       d="M94.083,837.441c0.759,0.467,1.867,0.855,3.034,0.855c1.729,0,2.74-0.914,2.74-2.236   c0-1.225-0.699-1.926-2.469-2.605c-2.139-0.758-3.461-1.867-3.461-3.713c0-2.043,1.691-3.561,4.238-3.561   c1.342,0,2.313,0.313,2.896,0.643l-0.467,1.381c-0.428-0.232-1.303-0.621-2.489-0.621c-1.789,0-2.469,1.068-2.469,1.963   c0,1.225,0.798,1.828,2.606,2.527c2.216,0.855,3.344,1.926,3.344,3.85c0,2.023-1.497,3.773-4.589,3.773   c-1.265,0-2.646-0.369-3.346-0.836L94.083,837.441L94.083,837.441z"
       id="path252" /><path
       fill="#414042"
       d="M105.01,834.816c0,2.061,1.186,3.615,2.859,3.615c1.633,0,2.857-1.535,2.857-3.654   c0-1.596-0.797-3.617-2.818-3.617C105.886,831.16,105.01,833.027,105.01,834.816L105.01,834.816z M112.477,834.718   c0,3.48-2.411,4.996-4.686,4.996c-2.547,0-4.512-1.865-4.512-4.842c0-3.148,2.062-4.996,4.666-4.996   C110.649,829.876,112.477,831.839,112.477,834.718L112.477,834.718z"
       id="path254" /><path
       fill="#414042"
       d="M114.809,839.501v-8.109h-1.322v-1.303h1.322v-0.447c0-1.32,0.292-2.525,1.089-3.285   c0.643-0.621,1.498-0.873,2.294-0.873c0.604,0,1.128,0.135,1.458,0.27l-0.232,1.322c-0.252-0.115-0.604-0.213-1.088-0.213   c-1.458,0-1.828,1.283-1.828,2.723v0.504h2.274v1.303h-2.274v8.109H114.809L114.809,839.501z"
       id="path256" /><path
       fill="#414042"
       d="M122.586,827.388v2.701h2.45v1.303h-2.45v5.076c0,1.166,0.33,1.828,1.283,1.828   c0.446,0,0.777-0.059,0.991-0.117l0.078,1.283c-0.331,0.137-0.854,0.232-1.517,0.232c-0.797,0-1.438-0.252-1.847-0.719   c-0.486-0.506-0.661-1.342-0.661-2.449v-5.135h-1.458v-1.303h1.458v-2.256L122.586,827.388L122.586,827.388z"
       id="path258" /><path
       fill="#414042"
       d="M129.138,829.236h0.35c0.408,0,0.739-0.137,0.739-0.469c0-0.291-0.214-0.484-0.68-0.484   c-0.194,0-0.331,0.02-0.408,0.039L129.138,829.236L129.138,829.236z M129.118,831.042h-0.739v-3.188   c0.292-0.059,0.7-0.098,1.225-0.098c0.604,0,0.875,0.098,1.108,0.232c0.175,0.137,0.312,0.389,0.312,0.701   c0,0.35-0.271,0.621-0.662,0.736v0.039c0.312,0.117,0.486,0.352,0.583,0.779c0.098,0.484,0.155,0.68,0.233,0.797h-0.797   c-0.097-0.117-0.156-0.408-0.253-0.779c-0.059-0.35-0.252-0.504-0.661-0.504h-0.35L129.118,831.042L129.118,831.042z    M127.155,829.371c0,1.42,1.051,2.549,2.489,2.549c1.399,0,2.432-1.129,2.432-2.527c0-1.42-1.031-2.566-2.45-2.566   C128.204,826.824,127.155,827.97,127.155,829.371L127.155,829.371z M132.89,829.371c0,1.809-1.419,3.229-3.267,3.229   c-1.828,0-3.286-1.42-3.286-3.229c0-1.77,1.458-3.188,3.286-3.188C131.471,826.181,132.89,827.601,132.89,829.371L132.89,829.371z"
       id="path260" /></g></svg>